<?xml version="1.0" encoding="UTF-8"?>
<svg xmlns="http://www.w3.org/2000/svg" version="1.1" viewBox="0 0 159.189 159.519">
  <defs>
    <style>
      .cls-1 {
        fill: #fff;
      }
    </style>
  </defs>
  <!-- Generator: Adobe Illustrator 28.6.0, SVG Export Plug-In . SVG Version: 1.2.0 Build 709)  -->
  <g>
    <g id="Layer_1">
      <g id="R8LX17">
        <g>
          <path class="cls-1" d="M69.507,99.675c.002,14.541.036,29.083-.012,43.624-.026,7.923-4.164,13.61-11.151,15.51-1.115.303-2.284.56-3.43.569-6.813.053-13.641.312-20.436-.042-9.206-.48-14.716-6.934-14.728-16.721-.027-22.02-.009-44.039-.009-66.059,0-6.564-.241-13.141.103-19.688.17-3.227.894-6.655,2.299-9.537,2.648-5.429,7.812-7.151,13.515-7.262,5.897-.115,11.799-.041,17.698-.021,9.84.034,16.083,6.155,16.13,16.003.07,14.541.018,29.082.02,43.624Z"/>
          <path class="cls-1" d="M139.372,79.818c0,7.812.073,15.625-.022,23.436-.079,6.527-2.404,11.956-8.722,14.696-2.369,1.027-5.109,1.518-7.707,1.63-5.558.24-11.133.099-16.701.068-10.072-.055-16.491-6.172-16.588-16.248-.152-15.789-.151-31.581-.003-47.37.094-10.011,6.405-15.969,16.433-15.982,5.734-.007,11.469-.022,17.203.003,9.709.042,15.934,6.096,16.082,15.833.121,7.976.025,15.956.025,23.934Z"/>
          <path class="cls-1" d="M79.59,14.935c-22.772,0-45.545.002-68.317-.006-1.328,0-2.67.016-3.982-.154C2.637,14.174-.047,11.321,0,7.138.042,3.462,3.259.466,7.652.044c.742-.071,1.495-.035,2.243-.035,46.459-.001,92.918-.011,139.378.035,1.787.002,3.639.333,5.344.877,2.893.923,4.735,3.843,4.561,6.712-.204,3.345-2.451,6.18-5.586,6.77-1.782.335-3.621.506-5.434.509-22.856.033-45.711.022-68.567.022Z"/>
        </g>
      </g>
    </g>
  </g>
</svg>