<?xml version="1.0" encoding="UTF-8"?>
<svg xmlns="http://www.w3.org/2000/svg" version="1.1" viewBox="0 0 159.524 159.524">
  <defs>
    <style>
      .cls-1 {
        fill: #fff;
      }
    </style>
  </defs>
  <!-- Generator: Adobe Illustrator 28.6.0, SVG Export Plug-In . SVG Version: 1.2.0 Build 709)  -->
  <g>
    <g id="Layer_1">
      <g id="f9Hkxl">
        <g>
          <path class="cls-1" d="M134.459,80.065c0,17.621-.007,35.242.003,52.864.003,5.762-1.016,11.233-4.397,16.061-4.972,7.099-12.03,10.348-20.45,10.411-19.846.148-39.696.185-59.542-.014-10.187-.102-18.235-4.532-22.406-14.112-1.64-3.767-2.459-8.189-2.481-12.318-.188-35.491-.131-70.983-.084-106.475.008-6.102,1.369-11.907,5.233-16.817C35.529,3.066,42.611.15,50.797.098c19.432-.124,38.865-.136,58.297-.004,12.23.083,21.667,7.336,24.531,18.704.68,2.7.789,5.596.8,8.404.068,17.621.035,35.242.034,52.864ZM114.736,79.993c0-4.071,0-8.142,0-12.214,0-13.875.016-27.751-.013-41.626-.009-4.481-1.705-6.139-6.169-6.214-1.494-.025-2.988-.018-4.483-.003-4.73.046-4.448-.675-4.479,4.341-.023,3.777-1.678,5.625-5.438,5.666-9.545.104-19.093.094-28.638-.003-3.532-.036-5.079-1.698-5.372-5.19-.083-.992.123-2.068-.199-2.963-.262-.729-1.081-1.729-1.711-1.772-2.726-.186-5.479-.177-8.21-.026-3.06.169-4.664,1.728-5.154,4.759-.145.894-.114,1.822-.114,2.734-.005,34.896-.01,69.793.017,104.689.001,1.393.163,2.82.5,4.169.576,2.304,2.166,3.403,4.568,3.402,20.006-.014,40.012.005,60.017-.03,2.799-.005,4.463-1.617,4.779-4.388.113-.986.097-1.99.097-2.986.005-17.448.004-34.896.003-52.344Z"/>
          <path class="cls-1" d="M79.909,129.67c-4.808-.002-9.617.043-14.425-.017-3.392-.043-5.279-1.887-5.269-4.954.008-2.523,1.192-3.998,3.677-4.58.242-.057.486-.15.729-.15,10.112-.015,20.228-.17,30.335.045,4.045.086,6.1,4.525,3.606,7.559-.946,1.15-2.927,1.922-4.483,2.007-4.711.257-9.446.093-14.171.091Z"/>
        </g>
      </g>
    </g>
  </g>
</svg>